<?xml version="1.0" encoding="iso-8859-1"?>
<!-- Generator: Adobe Illustrator 19.0.0, SVG Export Plug-In . SVG Version: 6.00 Build 0)  -->
<svg version="1.1" id="Layer_1" xmlns="http://www.w3.org/2000/svg" xmlns:xlink="http://www.w3.org/1999/xlink" x="0px" y="0px"
	 viewBox="0 0 511.998 511.998" style="enable-background:new 0 0 511.998 511.998;" xml:space="preserve">
<polygon style="fill:#E6AF78;" points="328.083,359.764 328.083,303.699 183.916,303.699 183.916,359.764 256,423.838 "/>
<path style="fill:#D29B6E;" d="M183.916,303.699v59.152c90.805,32.716,144.167-49.165,144.167-49.165v-9.989H183.916V303.699z"/>
<path style="fill:#B4E1FA;" d="M488.259,462.758c-0.058-30.86-19.573-63.767-53.156-73.107l-67.152-13.914l-19.07-28.798
	c-2.741-3.64-7.961-4.264-11.482-1.372l-81.506,70.429l0,0l0,0l-81.771-70.122c-3.532-2.878-8.75-2.235-11.477,1.416l-18.961,28.869
	l-67.099,14.166c-33.548,9.467-52.938,42.447-52.881,73.307l0.037,19.866c0.022,11.619,10.798,21.02,24.069,20.994l184.219-0.346
	l48.058-0.09l184.219-0.346c13.27-0.025,24.011-9.465,23.989-21.085L488.259,462.758z"/>
<g>
	<path style="fill:#A0D2F0;" d="M82.165,448.237l-42.779-31.872c-10.218,13.771-15.714,30.82-15.684,47.268l0.037,19.866
		c0.022,11.619,10.798,21.02,24.069,20.994L97.43,504.4v-22.521C97.431,469.044,91.882,456.814,82.165,448.237z"/>
	<path style="fill:#A0D2F0;" d="M488.296,482.624l-0.037-19.866c-0.037-19.71-8.022-40.245-22.529-54.951l-40.133,40.429
		c-9.715,8.577-15.265,20.807-15.265,33.642v21.932l53.975-0.101C477.577,503.685,488.318,494.244,488.296,482.624z"/>
</g>
<path style="fill:#785550;" d="M144.755,194.573c1.26-32.019,17.614-72.273,21.656-81.053c0.516-1.119,0.805-1.721,0.805-1.721
	c12.48-1.63,24.435-2.619,35.83-3.09c3.256-0.134,6.465-0.226,9.629-0.278c86.994-1.443,138.806,27.051,138.806,27.051
	l16.281,38.536c23.036-72.65,14.911-134.042,7.538-150.715c-56.052,8.114-138.907-39.454-191.117,0.358l-4.437,0.008
	c-33.174,0.063-52.688,28.909-52.622,64.176c0.064,34.043,15.957,101.617,15.957,101.617l1.676,11.118
	c-0.002-1.14-0.044-2.839,0-4.005C144.757,196.519,144.752,194.629,144.755,194.573z"/>
<path style="fill:#F0C087;" d="M366.913,219.715c0.081-0.633,0.158-1.265,0.232-1.896c1.939-16.629,3.809-37.677-3.308-53.085
	c-4.43-9.592-8.245-19.518-12.358-29.253c0,0-51.812-28.493-138.806-27.051c-3.164,0.052-6.373,0.144-9.629,0.278
	c-11.395,0.471-23.35,1.46-35.83,3.09c0,0-0.289,0.602-0.805,1.722c-30.007,65.189-34.767,146.2,20.251,200.02
	c12.617,12.342,27.943,22.125,44.997,26.978c2.117,0.604,4.257,1.13,6.415,1.576c0.418,0.087,0.838,0.172,1.258,0.252
	c5.394,1.033,10.905,1.574,16.504,1.564C320.756,343.791,359.542,277.207,366.913,219.715z"/>
<path style="fill:#E6AF78;" d="M182.799,218.709c-1.88-89.606,13.015-85.099,13.015-85.099c36.746-8.48,97.585-2.494,159.106,10.168
	c-1.136-2.773-2.277-5.543-3.44-8.298c0,0-51.812-28.493-138.806-27.051c-3.164,0.052-6.373,0.144-9.629,0.278
	c-11.395,0.471-23.35,1.46-35.83,3.09c0,0-0.289,0.602-0.805,1.722c-30.007,65.189-34.767,146.2,20.251,200.02
	c12.617,12.342,27.943,22.125,44.997,26.978c2.117,0.604,4.257,1.13,6.415,1.576c0.418,0.087,0.838,0.172,1.258,0.252
	c5.38,1.031,10.877,1.571,16.462,1.563C235.606,336.828,184.193,285.151,182.799,218.709z"/>
<path style="fill:#694B4B;" d="M375.298,23.301c-56.052,8.114-138.907-39.454-191.117,0.358c0,0-41.56,48.413-16.967,88.138
	c12.48-1.63,24.435-2.619,35.83-3.09c0.069-0.003,0.136-0.004,0.204-0.007c3.185-0.129,6.328-0.22,9.425-0.271
	c86.994-1.443,138.806,27.051,138.806,27.051l16.281,38.536C390.796,101.366,382.672,39.974,375.298,23.301z"/>
<path style="fill:#A0D2F0;" d="M231.909,440.07l23.984-24.074l-81.771-70.122c-3.532-2.878-8.75-2.235-11.477,1.416l-18.961,28.869
	l64.242,87.985L231.909,440.07z"/>
<path style="fill:#E4EAF6;" d="M304.039,463.963l63.911-88.226l-19.07-28.798c-2.741-3.64-7.961-4.264-11.482-1.372l-81.506,70.429
	l24.074,23.984L304.039,463.963z"/>
<path style="fill:#A0D2F0;" d="M304.039,463.963l63.911-88.226l-19.07-28.798c-2.741-3.64-7.961-4.264-11.482-1.372l-81.506,70.429
	l24.074,23.984L304.039,463.963z"/>
<polyline style="fill:#5B5D6E;" points="270.901,461.882 240.866,460.881 232.029,504.146 280.087,504.055 270.901,461.882 "/>
<path style="fill:#515262;" d="M231.924,448.079c0.017,8.81,7.238,16.006,16.05,15.99l16.02-0.03
	c8.81-0.017,16.006-7.238,15.989-16.05l-0.015-8.009l-24.074-23.984l-23.984,24.074L231.924,448.079z"/>
<g>
	<circle style="fill:#5B5D6E;" cx="278.892" cy="287.764" r="15.017"/>
	<path style="fill:#5B5D6E;" d="M137.919,246.639h-17.834c-4.631,0-8.386-3.754-8.386-8.386v-62.244
		c0-4.631,3.754-8.386,8.386-8.386h17.834c2.316,0,4.193,1.877,4.193,4.193v70.63C142.112,244.762,140.235,246.639,137.919,246.639z
		"/>
	<path style="fill:#5B5D6E;" d="M371.321,247.64h18.325c4.631,0,8.386-3.754,8.386-8.386V177.01c0-4.631-3.754-8.386-8.386-8.386
		h-18.325c-2.316,0-4.193,1.877-4.193,4.193v70.63C367.129,245.763,369.006,247.64,371.321,247.64z"/>
</g>
<path d="M495.767,462.744c-0.032-17.138-5.473-34.489-15.321-48.856c-10.761-15.698-25.745-26.581-43.331-31.472
	c-0.162-0.044-0.324-0.084-0.489-0.118l-64.122-13.286l-17.362-26.219c-0.083-0.126-0.171-0.25-0.262-0.37
	c-2.915-3.872-7.552-6.184-12.403-6.184c-3.578,0-7.074,1.252-9.843,3.526c-0.048,0.04-0.096,0.08-0.144,0.121l-76.616,66.202
	l-76.864-65.914c-0.047-0.041-0.095-0.081-0.144-0.12c-2.761-2.251-6.24-3.49-9.798-3.49c-4.874,0-9.524,2.33-12.438,6.231
	c-0.09,0.121-0.177,0.245-0.26,0.372l-17.263,26.283l-64.071,13.528c-0.164,0.034-0.326,0.074-0.488,0.12
	c-17.568,4.958-32.512,15.896-43.213,31.636c-9.793,14.403-15.17,31.774-15.138,48.912l0.038,19.865
	c0.015,7.816,3.438,15.099,9.638,20.509c5.902,5.148,13.671,7.981,21.885,7.98c0.022,0,0.045,0,0.067,0l184.184-0.346
	c0.01,0,0.02,0.001,0.03,0.001c0.012,0,0.024-0.001,0.036-0.001l47.975-0.09c0.01,0,0.02,0.001,0.03,0.001
	c0.009,0,0.019-0.001,0.028-0.001l184.213-0.346c8.239-0.016,16.024-2.879,21.922-8.063c6.18-5.432,9.576-12.729,9.561-20.545
	L495.767,462.744z M342.198,351.344c0.124-0.089,0.443-0.126,0.621,0.04l16,24.161l-55.704,76.896l-17.844-17.777l0,0
	l-18.346-18.277L342.198,351.344z M247.943,471.577c0.014,0,0.03,0,0.044,0l16.02-0.03c0.62-0.001,1.23-0.034,1.838-0.082
	l5.069,25.099l-29.739,0.056l4.975-25.118C246.741,471.547,247.339,471.577,247.943,471.577z M272.473,448.002
	c0.004,2.256-0.882,4.389-2.495,6.008c-1.613,1.62-3.744,2.514-6,2.518l-16.02,0.03c-0.005,0-0.01,0-0.016,0
	c-4.685,0-8.502-3.807-8.511-8.494l-0.009-4.9l16.489-16.551l16.551,16.489L272.473,448.002z M168.724,351.711
	c0.177-0.166,0.491-0.136,0.62-0.043l75.519,64.76l-36.055,36.19l-55.992-76.687L168.724,351.711z M47.795,496.983
	c-4.625,0.032-8.878-1.511-12.053-4.28c-2.89-2.522-4.486-5.797-4.492-9.221l-0.038-19.865
	c-0.049-26.103,16.139-57.109,47.177-65.999l62.094-13.11l61.378,84.062c1.295,1.773,3.301,2.891,5.49,3.06
	c0.192,0.015,0.383,0.021,0.574,0.021c1.988,0,3.905-0.79,5.319-2.21l12.788-12.836c1.322,3.372,3.395,6.367,6.02,8.775
	l-6.192,31.266L47.795,496.983z M476.329,491.875c-3.164,2.78-7.439,4.317-12.036,4.325l-178.064,0.334l-6.309-31.244
	c2.615-2.418,4.677-5.42,5.986-8.796l12.836,12.788c1.413,1.408,3.321,2.19,5.299,2.19c0.2,0,0.4-0.008,0.602-0.024
	c2.19-0.176,4.192-1.301,5.479-3.08l61.062-84.293l62.143,12.877c31.072,8.774,47.375,39.718,47.424,65.821l0.038,19.865
	C480.793,486.062,479.21,489.342,476.329,491.875z"/>
<path d="M119.926,254.341l0.184,97.851c0.008,4.142,3.368,7.494,7.509,7.494c0.005,0,0.01,0,0.015,0
	c4.147-0.008,7.503-3.376,7.495-7.523l-0.181-96.616l8.206-0.016c5.955,18.805,15.279,36.483,27.447,51.496
	c23.209,28.632,53.412,44.391,85.073,44.389c0.058,0,0.121,0,0.179,0c24.564-0.046,48.392-9.652,68.908-27.779
	c0.149-0.132,0.286-0.272,0.422-0.413c1.309,0.088,2.62,0.145,3.936,0.145c9.319,0,18.797-2.218,28.004-6.695
	c30.038-14.608,50.175-48.835,50.106-85.167l-0.09-48.057c-0.011-6.267-2.475-12.166-6.936-16.61
	c-4.45-4.434-10.341-6.873-16.59-6.873c-0.015,0-0.03,0-0.045,0l-3.929,0.007c17.806-67.871,9.668-123.567,2.529-139.712
	c-0.011-0.025-0.026-0.048-0.037-0.074c-0.068-0.149-0.143-0.293-0.22-0.438c-0.042-0.08-0.083-0.16-0.128-0.237
	c-0.074-0.127-0.155-0.249-0.237-0.371c-0.059-0.088-0.115-0.178-0.177-0.263c-0.072-0.099-0.15-0.192-0.227-0.288
	c-0.08-0.099-0.157-0.199-0.241-0.292c-0.068-0.077-0.142-0.147-0.213-0.221c-0.099-0.102-0.197-0.205-0.301-0.301
	c-0.07-0.064-0.145-0.124-0.218-0.186c-0.11-0.094-0.219-0.188-0.334-0.275c-0.086-0.065-0.176-0.123-0.265-0.184
	c-0.106-0.074-0.211-0.149-0.321-0.217c-0.114-0.07-0.232-0.132-0.349-0.197c-0.09-0.049-0.178-0.101-0.269-0.146
	c-0.14-0.069-0.285-0.129-0.431-0.19c-0.074-0.031-0.147-0.066-0.223-0.095c-0.154-0.059-0.313-0.108-0.472-0.157
	c-0.071-0.022-0.141-0.047-0.213-0.067c-0.151-0.042-0.306-0.074-0.461-0.105c-0.085-0.018-0.17-0.039-0.256-0.054
	c-0.133-0.022-0.267-0.037-0.402-0.052c-0.114-0.014-0.228-0.029-0.343-0.037c-0.107-0.007-0.215-0.008-0.323-0.01
	c-0.146-0.004-0.292-0.008-0.439-0.003c-0.086,0.003-0.172,0.011-0.259,0.017c-0.167,0.011-0.335,0.024-0.503,0.047
	c-0.025,0.003-0.05,0.003-0.075,0.007c-20.167,2.919-44.533-1.926-70.33-7.056c-43.157-8.582-87.752-17.425-122.434,7.55
	c-0.552-0.128-1.123-0.204-1.713-0.204c-0.005,0-0.01,0-0.015,0c-17.951,0.034-33.824,7.774-44.697,21.794
	c-9.981,12.87-15.456,30.593-15.42,49.905c0.037,19.791,5.129,49.94,9.589,72.588l-1.944,0.003
	c-6.266,0.012-12.165,2.475-16.61,6.936c-4.444,4.461-6.885,10.369-6.874,16.635l0.09,48.058
	C103.885,242.428,110.618,251.217,119.926,254.341z M350.552,303.171c-17.187,8.359-34.838,6.594-49.764-4.95
	c1.586-3.21,2.427-6.764,2.42-10.449c-0.024-12.949-10.578-23.483-23.572-23.483c-6.284,0.012-12.188,2.47-16.623,6.922
	s-6.871,10.365-6.86,16.649c0.024,12.949,10.578,23.484,23.527,23.484c0.005,0,0.04,0,0.045,0c3.697-0.007,7.259-0.867,10.471-2.475
	c0.271,0.295,0.562,0.578,0.886,0.834c4.941,3.893,10.175,6.956,15.601,9.193c-15.721,11.439-33.123,17.472-50.862,17.505
	c-0.051,0-0.098,0-0.149,0c-27.042,0-53.109-13.787-73.408-38.829c-20.048-24.734-31.582-57.494-31.642-89.881l-0.017-9.122
	c-0.054-28.83,16.316-67.819,21.691-79.838c96.726-11.622,160.857,16.193,173.341,22.212l14.618,34.601l0.06,31.818
	c0.05,26.582-7.63,53.711-21.626,76.39c-2.178,3.529-1.083,8.155,2.446,10.333c1.229,0.759,2.591,1.12,3.937,1.12
	c2.518,0,4.978-1.266,6.397-3.566c6.996-11.337,12.546-23.687,16.536-36.527l15.739-0.03c1.785-0.003,3.538-0.212,5.239-0.604
	C382.926,275.786,368.795,294.298,350.552,303.171z M271.169,287.832c-0.004-2.274,0.877-4.412,2.482-6.022
	c1.604-1.611,3.739-2.5,6.029-2.504c4.683,0,8.501,3.81,8.51,8.494c0.004,2.274-0.877,4.412-2.482,6.023
	c-1.604,1.61-3.739,2.5-6.013,2.504l-0.017,7.509v-7.509C274.996,296.327,271.178,292.515,271.169,287.832z M383.593,174.986
	c0.005,0,0.011,0,0.016,0c2.25,0,4.377,0.886,5.992,2.495c1.62,1.613,2.514,3.743,2.518,5.999l0.09,48.058
	c0.004,2.256-0.882,4.389-2.495,6.008c-1.613,1.619-3.743,2.513-5.999,2.518l-11.796,0.022c2.267-10.812,3.433-21.823,3.412-32.753
	l-0.06-32.183c0.016-0.05,0.031-0.099,0.046-0.149L383.593,174.986z M146.901,47.156c8.086-10.428,19.449-15.954,32.857-15.979
	c0.778-0.001,1.528-0.121,2.233-0.341c2.233,0.679,4.746,0.318,6.743-1.204c29.544-22.529,71.579-14.171,112.229-6.088
	c21.151,4.206,41.386,8.23,60.051,8.23c3.105,0,6.159-0.127,9.174-0.367c5.058,17.738,10.035,63.549-3.849,119.951l-7.941-18.798
	c-0.657-1.555-1.819-2.843-3.298-3.657c-2.952-1.624-73.633-39.594-188.856-24.548c-0.018,0.002-0.034,0.007-0.052,0.009
	c-0.145,0.02-0.287,0.05-0.43,0.079c-0.105,0.021-0.212,0.037-0.315,0.062c-0.093,0.022-0.182,0.054-0.274,0.08
	c-0.854,0.241-1.643,0.619-2.336,1.117c-0.006,0.004-0.013,0.008-0.02,0.013c-0.06,0.043-0.114,0.093-0.172,0.138
	c-0.502,0.385-0.961,0.833-1.359,1.347c-0.007,0.009-0.015,0.017-0.022,0.026c-0.081,0.105-0.153,0.218-0.229,0.329
	c-0.065,0.096-0.135,0.188-0.196,0.287c-0.049,0.08-0.092,0.165-0.139,0.247c-0.078,0.137-0.157,0.274-0.227,0.417
	c-0.007,0.014-0.016,0.027-0.023,0.042c-0.634,1.319-10.147,21.272-17.217,45.26c-4.149-21.533-8.567-48.524-8.6-65.973
	C134.6,71.844,138.958,57.399,146.901,47.156z M121.287,177.985c1.613-1.62,3.744-2.513,6-2.518l4.993-0.009
	c1.579,7.419,2.811,12.801,3.293,14.873l0.033,17.387c0.021,10.984,1.243,22.007,3.563,32.804l-11.759,0.022
	c-0.005,0-0.011,0-0.016,0c-4.685,0-8.502-3.807-8.51-8.494l-0.09-48.058C118.788,181.738,119.674,179.604,121.287,177.985z"/>
<g>
</g>
<g>
</g>
<g>
</g>
<g>
</g>
<g>
</g>
<g>
</g>
<g>
</g>
<g>
</g>
<g>
</g>
<g>
</g>
<g>
</g>
<g>
</g>
<g>
</g>
<g>
</g>
<g>
</g>
</svg>
