<?xml version="1.0" encoding="utf-8"?>
<!-- Generator: Adobe Illustrator 16.0.0, SVG Export Plug-In . SVG Version: 6.00 Build 0)  -->
<!DOCTYPE svg PUBLIC "-//W3C//DTD SVG 1.1//EN" "http://www.w3.org/Graphics/SVG/1.1/DTD/svg11.dtd">
<svg version="1.1" id="Layer_1" xmlns="http://www.w3.org/2000/svg" xmlns:xlink="http://www.w3.org/1999/xlink" x="0px" y="0px"
	 width="50px" height="50px" viewBox="0 0 50 50" enable-background="new 0 0 50 50" xml:space="preserve">
<path fill="#000000" d="M35.993,28.748c0.274-0.804,0.444-1.636,0.557-2.475c0.072-0.844,0.089-1.693-0.005-2.536
	c1.829-0.845,3.572-2,5.15-3.445c-0.403-1.386-0.95-2.734-1.686-3.973c-2.211-0.018-4.334,0.342-6.273,1.04
	c-0.543-0.651-1.188-1.21-1.864-1.717c-0.678-0.51-1.423-0.918-2.19-1.278c0.173-1.985,0.049-4.098-0.418-6.171
	C27.869,7.827,26.436,7.674,25,7.653c-1.129,1.917-1.878,3.939-2.251,5.948c-0.827,0.184-1.645,0.42-2.417,0.77
	c-0.771,0.347-1.522,0.753-2.193,1.27c-1.658-1.177-3.515-2.089-5.554-2.746c-1.016,1.022-1.875,2.194-2.609,3.438
	c1.096,1.935,2.47,3.594,4.033,4.921c-0.274,0.802-0.444,1.634-0.556,2.474c-0.074,0.844-0.089,1.693,0.004,2.536
	c-1.83,0.847-3.573,1.999-5.151,3.444c0.403,1.387,0.951,2.734,1.686,3.973c2.21,0.019,4.333-0.341,6.273-1.039
	c0.542,0.65,1.188,1.211,1.864,1.718c0.678,0.509,1.424,0.917,2.191,1.277c-0.173,1.984-0.05,4.097,0.417,6.171
	c1.396,0.367,2.828,0.52,4.265,0.54c1.129-1.917,1.878-3.939,2.251-5.948c0.826-0.183,1.644-0.42,2.416-0.769
	c0.771-0.348,1.522-0.754,2.194-1.27c1.658,1.177,3.514,2.089,5.554,2.745c1.016-1.021,1.874-2.193,2.61-3.437
	C38.932,31.733,37.556,30.074,35.993,28.748z M29.915,25.542c-0.206,1.715-1.312,3.301-2.935,3.978
	c-1.555,0.713-3.535,0.494-4.896-0.538c-1.437-1.015-2.171-2.805-1.998-4.523c0.205-1.715,1.312-3.301,2.934-3.979
	c1.554-0.711,3.533-0.494,4.896,0.54C29.354,22.034,30.088,23.825,29.915,25.542z"/>
</svg>
