<?xml version="1.0" encoding="utf-8"?>
<!-- Designed by Vexels.com - 2016 All Rights Reserved - https://vexels.com/terms-and-conditions/  -->

<svg version="1.1" id="Layer_1" xmlns="http://www.w3.org/2000/svg" xmlns:xlink="http://www.w3.org/1999/xlink" x="0px" y="0px"
	  viewBox="0 0 1200 1200" enable-background="new 0 0 1200 1200" xml:space="preserve">
<g>
	<path fill="#E9500E" d="M942.186,895.918c194.033-186.878,198.104-497.416,9.096-693.641
		C762.307,6.056,451.82-1.531,257.797,185.329C63.792,372.196,59.71,682.739,248.701,878.982
		c7.705,7.985,15.652,15.545,23.738,22.902L278.884,1150l181.791-140.601C625.25,1059.881,810.535,1022.723,942.186,895.918z"/>
	<g>
		<path fill="#FFFFFF" d="M500.682,626.155c19.039-89.693,106.258-154.537,231.824-154.537c13.179,0,25.853,0.926,38.325,2.361
			c0.111-2.181,0.471-4.223,0.471-6.522c0-94.818-114.923-171.697-256.585-171.697c-141.717,0-256.6,76.879-256.6,171.697
			c0,43.069,23.861,82.408,62.993,112.562c-19.537,25.051-46.36,44.09-77.355,53.797c11.586,3.505,23.945,5.478,36.72,5.478
			c32.442,0,61.973-12.432,84.209-32.609c40.847,19.795,79.02,28.819,132.935,29.688
			C497.378,633.406,500.048,629.133,500.682,626.155z"/>
		<path fill="#FFFFFF" d="M892.422,735.924c30.204-23.182,48.564-53.432,48.564-86.608c0-73.032-88.493-132.268-197.612-132.268
			c-109.113,0-197.538,59.236-197.538,132.268c0,73.026,88.425,132.245,197.538,132.245c43.203,0,83.031-9.376,115.511-25.123
			c17.161,15.546,39.861,25.123,64.873,25.123c9.814,0,19.268-1.457,28.308-4.251C928.11,769.908,907.451,755.215,892.422,735.924z
			 M667.959,673.003c-13.106,0-23.715-10.655-23.715-23.688c0-13.072,10.61-23.75,23.715-23.75c13.156,0,23.772,10.678,23.772,23.75
			C691.731,662.349,681.115,673.003,667.959,673.003z M748.893,673.003c-13.089,0-23.665-10.655-23.665-23.688
			c0-13.072,10.575-23.75,23.665-23.75c13.145,0,23.8,10.678,23.8,23.75C772.693,662.349,762.037,673.003,748.893,673.003z
			 M829.893,673.003c-13.168,0-23.789-10.655-23.789-23.688c0-13.072,10.621-23.75,23.789-23.75
			c13.123,0,23.677,10.678,23.677,23.75C853.57,662.349,843.016,673.003,829.893,673.003z"/>
	</g>
</g>
</svg>
